<svg xmlns="http://www.w3.org/2000/svg" width="465.333" height="465.333" preserveAspectRatio="xMidYMid meet" version="1.0" viewBox="0 0 349 349"><metadata>Created by potrace 1.14, written by Peter Selinger 2001-2017</metadata><g fill="#000" stroke="none"><path d="M1588 3485 c-2 -2 -25 -6 -53 -9 -133 -14 -304 -58 -430 -109 -64 -26 -197 -89 -205 -97 -3 -3 -21 -14 -40 -24 -32 -18 -168 -110 -215 -146 -35 -27 -265 -261 -265 -270 0 -5 -6 -15 -13 -22 -42 -44 -187 -271 -187 -293 0 -3 -13 -32 -29 -65 -39 -81 -106 -285 -116 -355 -6 -38 -16 -100 -22 -125 -9 -44 -10 -380 -1 -429 4 -25 11 -68 14 -96 4 -27 9 -54 11 -58 3 -5 7 -23 10 -40 6 -39 57 -202 80 -254 9 -21 17 -40 18 -43 3 -17 88 -177 114 -215 17 -25 31 -48 31 -51 0 -3 28 -42 62 -87 67 -88 238 -265 303 -313 22 -16 42 -32 45 -35 15 -18 192 -126 277 -168 146 -72 278 -117 448 -151 92 -19 108 -20 295 -24 160 -3 226 2 375 29 104 18 365 107 373 127 2 4 12 8 22 8 10 0 25 6 32 12 7 7 19 14 25 15 13 3 185 106 209 126 9 6 24 20 35 30 10 9 19 15 19 12 0 -3 14 7 31 22 89 78 135 120 153 142 12 13 35 38 52 56 44 46 154 192 154 204 0 6 4 11 9 11 5 0 14 14 21 31 7 17 18 36 24 42 23 25 119 233 144 312 8 28 17 55 19 60 10 32 51 218 58 260 4 28 8 124 10 215 6 409 -110 760 -363 1095 -55 73 -289 305 -307 305 -7 0 -15 4 -17 8 -3 9 -114 92 -122 92 -2 0 -33 17 -67 38 -108 64 -309 150 -394 168 -5 1 -28 6 -50 12 -43 12 -80 19 -135 27 -19 3 -46 8 -60 12 -26 6 -376 13 -382 8z" transform="translate(0.000000,349.000000) scale(0.100000,-0.100000)"/></g></svg>